<?xml version="1.0" encoding="utf-8"?>
<!-- Generator: Adobe Illustrator 21.0.2, SVG Export Plug-In . SVG Version: 6.00 Build 0)  -->
<svg version="1.1" id="Capa_1" xmlns="http://www.w3.org/2000/svg" xmlns:xlink="http://www.w3.org/1999/xlink" x="0px" y="0px"
	 viewBox="0 0 80 80" style="enable-background:new 0 0 80 80;" xml:space="preserve">
<style type="text/css">
	.st0{fill:#6CC7F6;}
	.st1{fill:#FFFFFF;}
</style>
<g>
	<path class="st0" d="M78.5,40c0,21.3-17.2,38.5-38.5,38.5S1.5,61.3,1.5,40S18.7,1.5,40,1.5S78.5,18.7,78.5,40"/>
	<path class="st1" d="M28.5,35.3c0.4,0.2,0.7,0.5,0.7,0.9L28.6,38c0,0.1,0.1,0.1,0.1,0.1c0.1-0.1,0.4-0.2,0.7-0.2c0.1,0,0.3,0,0.4,0
		c0.3-0.1,0.6-0.2,1.1-0.2h0c0.2,0,0.4,0,0.7,0.1c0.1,0,0.3-0.1,0.5-0.1v0.1l0,0.1l0.1,0.1h0.1c0.2-0.2,0.4-0.3,0.6-0.3h0.2
		c0.2,0,0.3,0.1,0.3,0.2c0,0.1,0,0.1,0,0.1c0.1,0,0.2-0.1,0.4-0.1c0,0,0.2,0.1,0.4,0.2c0,0,0.1,0,0.1-0.1c0.9,0,2.1,0.6,3.4,1.8
		c0.3,0.4,0.4,0.8,0.4,1.1V41c0,0,0,0,0,0l0,0.1c0,0.6-0.7,1.5-2.1,2.5c-0.8,0.7-2.2,1.4-4.2,2.2c-0.5,0.2-1.4,0.5-2.8,0.8
		c-0.1,0.1-1,0.2-2.9,0.5h-0.8c-0.6,0.2-0.9,0.3-0.9,0.4c-0.3,0.7-0.6,1.2-0.7,1.4c0.3,0.5,0.8,1.1,1.5,2c0.5,1,1.3,1.9,2.2,2.7
		c1.1,1.2,2.2,1.9,3.4,2.3c0.8,0.3,1.2,0.5,1.5,0.5c0.2,0.1,1.2,0.3,2.9,0.4c0,0,0,0.1,0,0.1c0.1-0.1,0.3-0.1,0.4-0.1l0.2,0.1
		c0.1,0,0.2-0.1,0.2-0.2l0.2,0.1c0.2-0.1,0.3-0.1,0.3-0.2l0.1,0.1l1.3-0.4c0.2,0.2,0.3,0.2,0.5,0.2h0.1v0c0-0.1,0-0.1,0-0.2
		c0.1-0.1,0.2-0.1,0.3-0.1v0.1l-0.1,0.1l0.1,0.1c0.1,0,0.1-0.1,0.1-0.3h0c0.2,0,0.3,0,0.3,0.1l0.1-0.1h0.1l-0.1,0.2l-0.1-0.1h-0.1
		c-0.8,0.6-1.5,0.9-2.2,0.9c-0.2,0.1-0.6,0.2-1,0.2c0,0-0.1,0.1-0.2,0.2c0,0-0.2,0-0.5-0.1l-0.6,0.2c-0.6,0-1-0.1-1.2-0.1
		c-0.2,0-0.4,0.1-0.4,0.1c-0.7-0.2-1.4-0.3-1.9-0.4c0-0.1-0.5-0.2-1.3-0.5c-1.1-0.6-1.7-1-1.9-1.2c-0.7-0.3-1.8-1.4-3.5-3.5
		c-0.7-1.2-1.2-1.8-1.4-1.8c-0.3,0.5-0.7,1.3-1,2.3c-0.1,0-0.3,0.3-0.6,1c-0.9,1.7-1.5,2.6-1.8,2.9c-0.2,0.4-0.4,0.8-0.7,1.1
		c-0.1,0.2-0.3,0.5-0.6,0.9c-0.2,0.3-0.4,0.5-0.6,0.5v0.3c-0.9,1-1.5,1.6-2,1.6l-0.1-0.1v-0.1c0.1,0,0.3-0.2,0.6-0.5
		c0,0.1,0.1,0.1,0.1,0.2c0,0,0.1-0.1,0.2-0.3c-0.1,0-0.1,0-0.1,0v-0.1c0.2-0.2,0.4-0.3,0.4-0.4v-0.1l0-0.1c0.2,0,0.3-0.2,0.3-0.5
		c0.2,0,0.2,0,0.2-0.1v-0.1l0-0.1c0.1,0,0.3-0.2,0.4-0.6l0.5-0.3c0-0.1-0.1-0.1-0.2-0.1v-0.1c0,0,0.1-0.1,0.3-0.3v-0.1
		c0,0,0,0-0.1,0c0.1-0.2,0.3-0.5,0.5-0.8v-0.1h0l0.3,0.2c0,0,0-0.1,0-0.1c0,0-0.1-0.2-0.2-0.3c0-0.1,0.2-0.3,0.5-0.7
		c0.1-0.4,0.3-0.7,0.5-0.7v0.1H20v-0.2c-0.1,0-0.2,0-0.2-0.1v-0.1c0-0.2,0.2-0.5,0.5-0.7l-0.1-0.1v-0.1c0.7-1.3,1.2-2.1,1.4-2.4
		l-0.1-0.2v0c0.1-0.1,0.1-0.1,0.1-0.2c0-0.2,0-0.2-0.1-0.2c0.4-0.7,0.6-1,0.8-1l-0.1-0.3c0.1-0.2,0.2-0.4,0.2-0.5
		c-0.8-1.1-1.5-1.6-2.3-1.6c-0.1-0.1-0.2-0.3-0.4-0.6c0-0.1,0.1-0.2,0.1-0.2l0-0.1v0c0.3,0,0.4-0.1,0.4-0.2c0.2,0.1,0.6,0.2,1.3,0.3
		c0,0,0,0.1,0.1,0.1h0c0.1-0.1,0.2-0.2,0.4-0.2h0.2c0.2,0,0.5,0,0.8,0.1c0.2,0,0.5-0.2,0.8-0.7H24v-0.1c0-0.1,0.1-0.2,0.2-0.5
		c0,0,0-0.1,0-0.2c0.3-1.2,0.7-2,1.1-2.5c0-0.2,0.1-0.6,0.3-1.2l0.2,0.2h0v-0.4c0.2-0.5,0.4-0.7,0.4-0.7c0-0.1-0.1-0.1-0.1-0.2
		c0.2-0.3,0.4-0.5,0.5-0.5c0-0.2-0.1-0.3-0.1-0.3c-0.6,0-2.3,0.6-5.2,1.7l-3.8,1.9c0,0-0.6,0.4-1.7,1c0,0.1-0.2,0.2-0.5,0.4
		c-0.8,0.6-1.1,1.2-1.1,1.8c-0.2,0.1-0.3,0.1-0.3,0.2c-0.3-0.1-0.5-0.2-0.7-0.4l0.1-0.1v-0.6c0.6-0.8,1-1.2,1.1-1.2
		c0,0,0.2-0.2,0.5-0.5c0.3-0.1,0.8-0.5,1.6-1.1l0.1,0.1h0.1c1.1-0.9,2.1-1.5,3.1-1.8h0.2c0.1-0.2,0.5-0.4,1.1-0.6
		c0.7-0.4,1.3-0.6,1.9-0.8c0.4-0.2,1.2-0.4,2.3-0.7c0,0,0.1-0.1,0.4-0.1h0.1c0-0.1,0-0.1,0.1-0.1l0.4,0c0.1-0.1,0.3-0.3,0.8-0.4
		c0.2-0.3,0.4-0.6,0.5-1c0.1,0,0.1,0,0.1-0.1c0-0.1,0-0.1-0.1-0.2l0.3-1.3C28.1,35.4,28.3,35.3,28.5,35.3 M17.8,58.3l-0.1,0.2v0.1
		h0.2c0.1,0,0.1,0,0.1-0.1v-0.2H17.8z M22.8,47.5v0.2c0,0,0,0.1,0.1,0.1c0.1,0,0.2-0.1,0.2-0.3H22.8z M25.1,46L25.1,46
		c0,0.1,0.1,0.1,0.2,0.1c0.1,0,0.1,0,0.1,0l0.4,0c0.3,0,0.7,0,1.1-0.1c0,0.1,0,0.1,0.1,0.1c0.1,0,0.3-0.1,0.5-0.2l0.3,0.1
		c0-0.1,0-0.2,0.1-0.2c0.1,0,0.1,0.1,0.2,0.1c0-0.1,0-0.1,0-0.2h0.6c0.1-0.1,0.2-0.1,0.2-0.2c0.1,0.1,0.3,0.1,0.4,0.1
		c0-0.1,0.3-0.2,0.9-0.4l0.1,0h0.2c0.1-0.1,0.5-0.3,1.2-0.5l1-0.5l0.3,0c0.1-0.1,0.2-0.2,0.4-0.3l0.1,0.1h0.2c0-0.2,0.3-0.4,0.9-0.6
		c0.1-0.2,0.6-0.5,1.2-0.8c0-0.1,0.3-0.5,1-1.1c0.2-0.5,0.3-0.9,0.3-1.1c0-0.6-0.9-1.1-2.7-1.7c-0.7-0.1-1.5-0.2-2.5-0.2
		c0,0-0.1,0-0.2,0l-0.1,0c-2.3,0.1-3.5,0.3-3.5,0.6C27.8,39.9,26.8,42.2,25.1,46"/>
	<path class="st1" d="M40.3,44.4c0.2,0,0.5,0.2,0.8,0.5c0,0.5-0.1,1-0.4,1.4c-1,1.1-1.7,1.7-2.4,1.8l-0.7,0.3v0.2
		c0,0.4,0.4,0.7,1.2,0.7c0.5,0,1.1-0.2,1.6-0.4c0.5-0.2,1.3-0.8,2.2-2c0.2-0.4,0.5-0.8,0.9-1.2h0.2c0,0.1,0,0.2,0.1,0.3v0.1
		c-1,2.3-2.5,3.6-4.5,4c-0.2,0-0.4,0-0.6,0.1c-1.2,0-2-0.6-2.4-1.8l-0.1-0.9h0.2c0.1-0.7,0.8-1.6,1.9-2.5
		C39.3,44.6,39.9,44.4,40.3,44.4 M37.9,47.2c1.1-0.4,1.9-1,2.3-1.8v-0.1c0,0,0-0.1,0-0.1C39.5,45.4,38.8,46,37.9,47.2L37.9,47.2z
		 M44.2,45.4l0.1,0.3l-0.2,0.1h-0.4v-0.3L44.2,45.4z"/>
	<path class="st1" d="M48.9,39.1c0.6,0,1,0.3,1,0.8c-0.2,1.4-0.6,2.4-1.1,2.9c-0.6,0.9-1.5,1.7-2.7,2.5c-1.3,0.5-1.9,0.9-1.9,1.1
		c-0.2,0.3-0.4,1.2-0.5,2.5l0,0.5c0,0.5,0.3,0.7,0.8,0.7h0.2c0.8,0,1.7-0.3,2.6-1c0.6-0.4,1.2-0.8,1.7-1.4c0.1-0.2,0.5-0.6,1.3-1.3
		l0.6-0.8c0.2,0.1,0.2,0.1,0.2,0.2c-0.3,1.1-1,2.1-2,3c-1.5,1.5-3,2.3-4.3,2.3h-0.3c-0.9,0-1.6-0.5-2-1.5l-0.1-0.7
		c0.1-1,0.3-1.8,0.5-2.2c0-0.4,0-0.8,0.1-1.1c0.1-0.3,0.2-0.4,0.4-0.4c0-0.1,0.2-0.4,0.5-0.9c0-0.4,0.5-1.2,1.5-2.3
		C47.1,40,48.2,39.1,48.9,39.1 M45,44.6l0.1,0.1c1.3-0.7,2.2-1.5,2.9-2.6c0.3-0.2,0.6-0.9,1-1.9l0-0.3c-0.4,0-1.1,0.6-2.2,1.8
		C45.7,43.2,45.1,44.1,45,44.6"/>
	<path class="st1" d="M53.5,44.6c0.4,0,0.8,0.2,1.3,0.7c0.5,0,0.8,0.2,0.8,0.5c0,0,0.1,0,0.1,0.1c-0.5,1-0.8,1.8-0.8,2.5v0.2
		c0.1,0.4,0.2,0.5,0.3,0.5h0.4c0.5,0,1.5-0.7,2.7-2.2c0-0.1,0.3-0.3,0.8-0.7c0.1-0.3,0.2-0.5,0.5-0.6h0.1c0,0.1,0,0.2,0.1,0.4
		c-0.2,0.7-0.6,1.3-1,1.9c-1.3,1.7-2.4,2.5-3.3,2.5c-0.8,0-1.4-0.5-1.8-1.4v-0.1h-0.2C52,50,50.8,50.6,50,50.6h-0.2
		c-0.8,0-1.2-0.4-1.5-1.2v-0.1c0-1.1,0.8-2.2,2.4-3.3l1.6-1.1C52.4,44.7,52.8,44.6,53.5,44.6 M49.7,49.1v0.4c0,0.1,0,0.1,0.1,0.1
		h0.1c0.7,0,1.7-0.6,2.9-1.7c0.7-0.8,1.1-1.3,1.1-1.8v-0.1c0-0.5-0.2-0.7-0.5-0.7c-0.9,0.3-2,1.1-3,2.2C50,48.1,49.8,48.6,49.7,49.1
		"/>
	<path class="st1" d="M63.4,44.7h0.5c0.2,0,0.3,0.1,0.4,0.4c0,0.1-0.3,0.3-0.8,0.8c-0.2,0.1-0.5,0.5-0.9,1c-0.2,0.2-0.5,0.5-0.8,0.9
		l0,0.1c0.4,0.5,0.8,0.7,1.1,0.7c0.6-0.2,1.3-0.6,2.1-1.2c0-0.1,0.2-0.2,0.6-0.5c0.4-0.2,0.8-0.6,1.4-1.2c0.2-0.1,0.3-0.2,0.3-0.4
		c0.2,0,0.3,0.1,0.3,0.4c-0.1,0.4-0.4,0.8-0.8,1.2c-0.1,0-0.2,0.2-0.5,0.5c-0.3,0.3-0.8,0.7-1.5,1.2c-0.5,0.5-1,0.7-1.6,0.7
		c0,0.1-0.3,0.2-1,0.2c-0.3,0-0.7-0.2-1.3-0.6h-0.1c-1,1-1.6,1.7-1.8,2.1c-0.6,0.7-1,1-1.2,1h-0.1c-0.1-0.1-0.2-0.1-0.3-0.1
		c0.1-0.2,0.1-0.3,0.1-0.4c0-0.1,0-0.1-0.1-0.1c0.7-1.2,1.2-1.9,1.3-2c0.5-0.5,0.9-1,1.2-1.3c-0.5-0.8-0.8-1.6-0.9-2.3l0-0.1
		c0-0.2,0.2-0.3,0.6-0.4c0.4,0,0.6,0.2,0.7,0.5c0.2,0.6,0.4,1,0.6,1.3h0c1-1,1.5-1.5,1.5-1.5C62.8,45,63.2,44.7,63.4,44.7"/>
	<path class="st1" d="M45.8,35.8c-1.5-0.3-2.9-1-4.2-1.9c-1.3-0.9-2.3-2.1-3.1-3.5c-0.2-0.3-0.4-0.7-0.5-1.1
		c-0.2-0.4-0.3-0.7-0.4-1.1c-0.1-0.4-0.3-0.7-0.4-1.1l-0.2-1.2c-0.1-0.4-0.1-0.8-0.1-1.2l-0.1-1.2c0-0.8,0.1-1.6,0.1-2.3l0-0.5
		l0.4,0c1.2,0,2.4,0,3.5,0.2c0.6,0.1,1.2,0.2,1.7,0.3c0.6,0.2,1.2,0.4,1.6,0.7c-0.5-0.2-1.1-0.3-1.7-0.4c-0.6,0-1.1-0.1-1.7-0.1
		c-1.1,0-2.3,0.1-3.4,0.2l0.5-0.5c0,0.7,0,1.5,0,2.2c0.1,0.7,0.1,1.5,0.3,2.2c0.2,1.5,0.7,2.8,1.4,4.1c0.7,1.3,1.6,2.5,2.6,3.5
		C43.1,34.3,44.4,35.1,45.8,35.8"/>
	<path class="st1" d="M52.2,35.8c1.4-0.6,2.6-1.5,3.7-2.5c1.1-1,2-2.2,2.6-3.5c0.6-1.3,1.1-2.7,1.4-4.1c0.2-0.7,0.2-1.5,0.3-2.2
		c0-0.7,0-1.5,0-2.2l0.5,0.5c-1.1-0.1-2.3-0.2-3.4-0.2c-0.6,0-1.1,0-1.7,0.1c-0.6,0-1.1,0.1-1.7,0.4c0.5-0.4,1.1-0.6,1.6-0.7
		c0.6-0.1,1.2-0.3,1.7-0.3c1.2-0.1,2.3-0.2,3.5-0.2l0.4,0l0,0.5c0,0.8,0.1,1.6,0.1,2.3l-0.1,1.2c0,0.4-0.1,0.8-0.1,1.2L60.8,27
		c-0.1,0.4-0.2,0.8-0.4,1.1c-0.1,0.4-0.3,0.8-0.4,1.1c-0.2,0.4-0.3,0.7-0.5,1.1c-0.8,1.4-1.9,2.6-3.1,3.5
		C55.1,34.8,53.7,35.5,52.2,35.8"/>
	<path class="st1" d="M44.1,29.5c-0.3-0.8-0.5-1.7-0.6-2.6c-0.1-0.9-0.1-1.8,0-2.7c0.1-0.9,0.3-1.8,0.6-2.7c0.3-0.9,0.7-1.7,1.2-2.5
		l0,0l0,0c1-1.2,2.1-2.4,3.1-3.6l0.4-0.5l0.4,0.5l2.5,2.9c0.9,1,1.5,2.2,2,3.5c0.4,1.2,0.7,2.6,0.7,3.9c0,1.3-0.2,2.6-0.7,3.8
		c0.2-1.3,0.3-2.5,0.1-3.8c-0.1-1.2-0.5-2.4-0.9-3.6c-0.5-1.1-1.1-2.2-2-3.1l-2.5-2.9l0.9,0c-1.1,1.2-2.1,2.4-3.2,3.5l0-0.1
		c-0.5,0.7-0.9,1.4-1.2,2.2c-0.4,0.8-0.6,1.6-0.8,2.4C43.9,26,43.8,27.8,44.1,29.5"/>
	<path class="st1" d="M51.3,38c2.6,0.3,5.2-0.1,7.5-1c1.1-0.5,2.3-1.1,3.3-1.9c1-0.7,1.9-1.7,2.8-2.6l0,0.7
		c-0.7-0.9-1.5-1.7-2.3-2.6c-0.4-0.4-0.8-0.8-1.3-1.2c-0.4-0.4-0.9-0.7-1.4-1c0.6,0.1,1.1,0.3,1.7,0.6c0.5,0.3,1,0.6,1.5,1
		c0.9,0.7,1.8,1.5,2.6,2.4l0.3,0.3l-0.3,0.3c-0.4,0.5-0.8,1.1-1.3,1.5c-0.5,0.5-1,1-1.5,1.3c-0.3,0.2-0.5,0.4-0.8,0.6l-0.9,0.5
		c-0.6,0.3-1.2,0.6-1.9,0.8c-1.3,0.5-2.7,0.7-4,0.7C53.9,38.7,52.5,38.5,51.3,38"/>
	<path class="st1" d="M46.6,38c-1.2,0.5-2.6,0.7-3.9,0.7c-1.3,0-2.7-0.2-4-0.7c-0.6-0.2-1.3-0.5-1.9-0.8L36,36.6
		c-0.3-0.2-0.6-0.4-0.8-0.6c-0.6-0.4-1-0.9-1.5-1.3c-0.5-0.5-0.9-1-1.3-1.5L32,32.8l0.3-0.3c0.8-0.9,1.7-1.6,2.6-2.4
		c0.5-0.4,1-0.7,1.5-1c0.5-0.3,1.1-0.6,1.7-0.6c-0.5,0.2-1,0.6-1.4,1c-0.4,0.4-0.8,0.8-1.3,1.2c-0.8,0.8-1.6,1.7-2.3,2.6l0-0.7
		c0.9,0.9,1.7,1.9,2.8,2.6c1,0.8,2.1,1.4,3.3,1.9C41.4,37.9,44,38.3,46.6,38"/>
	<path class="st1" d="M49.3,36.8c-0.5-0.5-1-1-1.4-1.7c-0.3-0.7-0.4-1.6,0-2.3c0.3-0.7,0.6-1.3,0.8-1.8c0.1-0.5,0-1.1-0.2-1.6
		c-0.1-0.3-0.3-0.6-0.5-0.9c-0.2-0.3-0.3-0.8-0.4-1.1c-0.1-0.8-0.1-1.5,0-2.2c0.1-0.7,0.3-1.4,0.6-2.1c0.3-0.7,0.6-1.3,1.2-1.8
		c-0.6,1.3-0.7,2.6-0.8,4c0,0.7,0,1.3,0.1,1.9c0.1,0.6,0.5,1,0.8,1.7c0.4,0.7,0.5,1.6,0.3,2.4c-0.3,0.8-0.7,1.4-1,2
		c-0.3,0.5-0.4,1.1-0.2,1.7C48.6,35.5,48.9,36.1,49.3,36.8"/>
</g>
</svg>
